<svg width="146" height="57" viewBox="0 0 146 57" fill="none" xmlns="http://www.w3.org/2000/svg">
<rect width="146" height="57" rx="4" fill="#1E2D3D"/>
<path d="M38.864 19.742V33.008C38.864 33.5653 39.0363 33.9613 39.381 34.196C39.7257 34.4233 40.1693 34.537 40.712 34.537C41.0567 34.537 41.383 34.5003 41.691 34.427C41.999 34.3537 42.307 34.2583 42.615 34.141L43.165 35.648C42.8423 35.8093 42.439 35.9523 41.955 36.077C41.471 36.209 40.9247 36.275 40.316 36.275C39.2307 36.275 38.3653 35.9707 37.72 35.362C37.0747 34.7533 36.752 33.9173 36.752 32.854V21.348H33.221V19.742H38.864ZM53.3644 24.406V34.394H56.5874V36H47.7214V34.394H51.2524V26.012H47.8314V24.406H53.3644ZM51.7914 18.862C52.2314 18.862 52.5834 18.9977 52.8474 19.269C53.1187 19.5403 53.2544 19.8703 53.2544 20.259C53.2544 20.6623 53.1187 21.0033 52.8474 21.282C52.5834 21.5533 52.2314 21.689 51.7914 21.689C51.3587 21.689 51.0067 21.5533 50.7354 21.282C50.4714 21.0033 50.3394 20.6623 50.3394 20.259C50.3394 19.8703 50.4714 19.5403 50.7354 19.269C51.0067 18.9977 51.3587 18.862 51.7914 18.862ZM60.4838 36V24.406H62.2988L62.4528 25.968C62.9295 25.374 63.5088 24.9193 64.1908 24.604C64.8801 24.2887 65.5658 24.131 66.2478 24.131C67.3625 24.131 68.1838 24.4353 68.7118 25.044C69.2398 25.6453 69.5038 26.485 69.5038 27.563V36H67.3918V28.861C67.3918 28.1277 67.3478 27.5337 67.2598 27.079C67.1791 26.617 67.0068 26.2833 66.7428 26.078C66.4788 25.8727 66.0791 25.77 65.5438 25.77C65.1258 25.77 64.7298 25.8617 64.3558 26.045C63.9818 26.2283 63.6445 26.4593 63.3438 26.738C63.0505 27.0167 62.8011 27.3063 62.5958 27.607V36H60.4838ZM83.6082 24.406L78.6142 29.609L84.1582 36H81.4852L76.0842 29.664L81.0012 24.406H83.6082ZM75.8862 19.489V36H73.7742V19.742L75.8862 19.489Z" fill="white"/>
<path d="M32 37.375H84.7742V37.925H32V37.375Z" fill="white"/>
<a href="https://remixicon.com/">
<rect fill="black" fill-opacity="0" y="0.0679989" width="52.7742" height="28.864"/>
</a>
<path d="M102.389 20.1667V22.2778H97.1111V33.8889H108.722V28.6111H110.833V34.9444C110.833 35.2244 110.722 35.4929 110.524 35.6908C110.326 35.8888 110.058 36 109.778 36H96.0556C95.7756 36 95.5071 35.8888 95.3092 35.6908C95.1112 35.4929 95 35.2244 95 34.9444V21.2222C95 20.9423 95.1112 20.6738 95.3092 20.4758C95.5071 20.2779 95.7756 20.1667 96.0556 20.1667H102.389ZM114 17V25.4444H111.889V20.6026L103.663 28.8296L102.17 27.3371L110.395 19.1111H105.556V17H114Z" fill="#607B96"/>
</svg>
